<svg width="1254" height="1254" viewBox="0 0 1254 1254" fill="none" xmlns="http://www.w3.org/2000/svg">
<rect width="1254" height="1254" fill="#231A46"/>
<path fill-rule="evenodd" clip-rule="evenodd" d="M600 192.613C192.327 228.266 88.8179 773.615 455.004 956.54C520.818 989.416 612.724 1005.4 672.668 994.39L675.836 993.808L675.722 979.654C675.639 969.392 676.113 963.087 677.446 956.725C679.697 945.974 681.088 946.842 664.479 948.634C634.66 951.852 592.228 950.276 564.172 944.909C553.459 942.859 530.249 937.272 528.846 936.405C527.768 935.738 577.927 787.05 614.5 682.5C632.141 632.069 633.83 627.338 633.926 628.06C634.013 628.721 641.065 648.591 662.472 708.5C671.12 732.7 684.648 770.725 692.535 793C719.889 870.257 722.14 876.504 722.891 877.273C723.307 877.699 737.427 864.115 754.269 847.087C793.549 807.376 805.765 798.795 832.676 792.015C836.554 791.038 836.973 790.59 838.559 785.731C839.498 782.854 845.876 765.425 852.732 747C859.588 728.575 872.159 694.15 880.666 670.5C889.174 646.85 901.006 614 906.96 597.5C935.315 518.915 939.757 498.396 938.824 450.279L938.409 428.881L941.359 434.69C976.202 503.314 987.145 591.287 970.665 670.289C970.574 670.723 976.8 671.231 984.5 671.419C992.683 671.617 1001.97 672.489 1006.86 673.517C1017.45 675.745 1016.64 677.255 1020.49 648C1053.51 397.057 844.95 171.19 600 192.613ZM664 240.525C735.51 248.5 809.726 281.535 860.298 327.901L863.096 330.466L853.798 331.635C796.328 338.863 784.255 397.485 826.896 462.271C866.464 522.389 872.706 557.694 854.949 620.928C846.208 652.057 802.464 793.655 801.112 795.198C800.775 795.582 795.232 780.282 788.793 761.198C782.355 742.114 768.474 701.075 757.946 670C731.733 592.62 719.693 556.335 709.504 524C704.737 508.875 695.729 481.2 689.486 462.5L678.134 428.5L681.317 427.84C683.068 427.478 691.7 426.672 700.5 426.051C727.457 424.148 735.76 418.135 730.49 404.333C726.763 394.576 722.513 393.478 695.937 395.406C636.181 399.742 604.918 399.753 546.063 395.46C518.959 393.482 512 396.345 512 409.474C512 420.931 518.049 424.382 541 426.015C563.62 427.625 561.486 426.408 566.486 440.543C568.812 447.119 575.46 465.55 581.259 481.5C618.607 584.221 615.33 568.165 605.463 600.104C596.877 627.895 589.926 649.627 565.99 723.5C551.951 766.828 540 804.766 540 806.002C540 811.175 530.726 784.382 490.846 664C480.369 632.375 458.519 566.507 442.29 517.626C421.37 454.617 413.125 428.541 413.959 428.026C414.605 427.626 423.317 426.733 433.317 426.042C458.845 424.277 464.566 421.21 464.449 409.355C464.305 394.771 459.473 393.313 420.091 395.976C402.716 397.151 375.72 398.383 360.1 398.714L331.7 399.316L333.6 396.067C380.97 315.063 490.064 250.286 597 239.668C607.777 238.597 651.764 239.16 664 240.525ZM306.808 459C307.974 462.025 313.923 478.225 320.029 495C326.135 511.775 334.449 534.5 338.504 545.5C356.197 593.488 391.86 691.624 416.999 761.5C431.196 800.962 438.363 820.7 458.032 874.5C461.249 883.3 465.879 895.765 468.322 902.201L472.763 913.901L464.109 909.555C313.511 833.92 239.092 647.939 292.626 481C295.831 471.006 303.498 452.105 304.073 452.779C304.412 453.176 305.642 455.975 306.808 459ZM967.5 697.517C938.696 702.841 929.102 709.368 886.981 752.295C849.394 790.601 850.464 788.207 870.5 789.179C884.688 789.867 891.775 791.301 904.865 796.132L911.23 798.481L932.017 777.315C959.158 749.68 965.073 746.065 983.227 746.021C1018.24 745.936 1038.05 781.704 1021.15 814.5C1016.69 823.143 943.607 897.79 934.492 903.005C915.233 914.024 891.76 910.179 876.181 893.455L869.923 886.737L863.036 887.23C854.039 887.873 849.906 890.353 838.69 901.842L829.879 910.866L831.358 913.725C853.975 957.461 919.881 971.709 964.505 942.509C977.847 933.779 1053.93 855.8 1061.2 843.406C1103.7 770.952 1047.08 682.807 967.5 697.517ZM851.5 813.651C836.485 816.041 821.479 821.836 809.161 830.003C799.947 836.111 730.559 904.486 721.959 915.932C673.007 981.081 711.491 1069.75 790 1072.7C826.701 1074.08 840.902 1066.29 887.358 1019.3C923.952 982.284 923.109 983.772 908 982.881C895.039 982.116 881.816 979.666 873.256 976.444C869.684 975.1 866.041 974 865.161 974C864.28 974 854.096 983.42 842.53 994.933C824.662 1012.72 820.532 1016.32 815.065 1018.9C772.437 1039 732.71 995.37 755.773 953.779C760.205 945.785 830.551 874.106 838.582 869.399C858.741 857.585 882.444 860.835 897.675 877.5L904.073 884.5L910.786 884.428C919.735 884.333 922.505 882.767 934.25 871.167C945.482 860.074 945.106 861.155 940.247 853.926C920.81 825.013 884.279 808.435 851.5 813.651Z" fill="white"/>
</svg>
