<svg width="1254" height="1254" viewBox="0 0 1254 1254" fill="none" xmlns="http://www.w3.org/2000/svg">
<path fill-rule="evenodd" clip-rule="evenodd" d="M594.471 146.616C144.123 186.001 29.7784 788.437 434.297 990.511C507 1026.83 608.527 1044.48 674.746 1032.32L678.246 1031.68L678.12 1016.04C678.028 1004.71 678.552 997.743 680.024 990.715C682.511 978.839 684.047 979.797 665.7 981.777C632.759 985.332 585.886 983.591 554.893 977.662C543.058 975.398 517.419 969.226 515.869 968.268C514.678 967.531 570.088 803.278 610.489 687.784C629.977 632.074 631.842 626.848 631.949 627.645C632.045 628.375 639.835 650.325 663.483 716.506C673.036 743.239 687.98 785.245 696.693 809.851C726.91 895.196 729.397 902.097 730.226 902.946C730.686 903.417 746.284 888.411 764.889 869.6C808.281 825.732 821.776 816.253 851.504 808.763C855.788 807.684 856.251 807.189 858.003 801.821C859.04 798.643 866.085 779.39 873.659 759.036C881.233 738.682 895.12 700.654 904.517 674.528C913.916 648.402 926.987 612.113 933.564 593.886C964.887 507.075 969.794 484.408 968.763 431.254L968.305 407.616L971.564 414.033C1010.05 489.841 1022.14 587.023 1003.94 674.295C1003.84 674.774 1010.71 675.335 1019.22 675.543C1028.26 675.762 1038.52 676.725 1043.92 677.861C1055.62 680.322 1054.73 681.99 1058.98 649.673C1095.45 372.461 865.063 122.95 594.471 146.616ZM665.171 199.543C744.166 208.353 826.151 244.846 882.017 296.066L885.108 298.899L874.837 300.19C811.351 308.175 798.014 372.934 845.119 444.501C888.829 510.913 895.724 549.913 876.108 619.767C866.452 654.154 818.129 810.575 816.636 812.279C816.263 812.704 810.14 795.802 803.027 774.72C795.915 753.639 780.581 708.303 768.951 673.976C739.994 588.495 726.694 548.412 715.438 512.692C710.172 495.984 700.221 465.412 693.325 444.754L680.784 407.195L684.3 406.466C686.235 406.066 695.77 405.176 705.491 404.49C735.27 402.388 744.443 395.745 738.621 380.498C734.504 369.72 729.809 368.507 700.451 370.637C634.44 375.427 599.904 375.439 534.888 370.697C504.947 368.512 497.259 371.674 497.259 386.178C497.259 398.834 503.941 402.646 529.295 404.45C554.283 406.229 551.925 404.884 557.449 420.499C560.018 427.763 567.362 448.124 573.768 465.743C615.026 579.217 611.406 561.48 600.506 596.763C591.021 627.463 583.343 651.47 556.901 733.076C541.392 780.94 528.19 822.849 528.19 824.214C528.19 829.929 517.946 800.331 473.891 667.347C462.317 632.412 438.18 559.649 420.252 505.651C397.142 436.046 388.034 407.241 388.955 406.672C389.669 406.23 399.293 405.243 410.34 404.48C438.54 402.53 444.86 399.142 444.731 386.046C444.572 369.936 439.234 368.325 395.729 371.267C376.535 372.565 346.713 373.926 329.458 374.291L298.085 374.956L300.184 371.367C352.513 281.884 473.027 210.326 591.157 198.596C603.062 197.413 651.654 198.035 665.171 199.543ZM270.588 440.888C271.876 444.23 278.447 462.125 285.193 480.657C291.938 499.188 301.122 524.291 305.602 536.443C325.147 589.454 364.543 697.863 392.314 775.054C407.997 818.647 415.914 840.451 437.642 899.883C441.196 909.604 446.31 923.374 449.009 930.483L453.915 943.408L444.355 938.607C277.992 855.055 195.783 649.605 254.921 465.191C258.462 454.151 266.931 433.271 267.566 434.016C267.941 434.454 269.3 437.546 270.588 440.888ZM1000.44 704.373C968.622 710.254 958.024 717.465 911.493 764.885C869.972 807.201 871.154 804.557 893.287 805.63C908.96 806.39 916.789 807.974 931.249 813.311L938.281 815.906L961.244 792.524C991.226 761.997 997.76 758.003 1017.81 757.954C1056.49 757.861 1078.37 797.373 1059.71 833.602C1054.79 843.15 974.047 925.611 963.978 931.372C942.703 943.544 916.773 939.297 899.563 920.822L892.65 913.401L885.042 913.945C875.103 914.656 870.537 917.395 858.147 930.087L848.414 940.056L850.048 943.214C875.032 991.528 947.837 1007.27 997.133 975.011C1011.87 965.367 1095.92 879.225 1103.95 865.534C1150.9 785.495 1088.35 688.123 1000.44 704.373ZM872.298 832.664C855.711 835.304 839.135 841.706 825.527 850.728C815.349 857.475 738.697 933.008 729.197 945.652C675.12 1017.62 717.633 1115.57 804.36 1118.83C844.903 1120.35 860.591 1111.74 911.91 1059.84C952.334 1018.95 951.403 1020.59 934.713 1019.61C920.395 1018.76 905.788 1016.06 896.332 1012.5C892.386 1011.01 888.361 1009.8 887.389 1009.8C886.416 1009.8 875.166 1020.2 862.389 1032.92C842.651 1052.57 838.088 1056.55 832.049 1059.4C784.959 1081.61 741.073 1033.41 766.55 987.461C771.446 978.63 849.156 899.447 858.028 894.248C880.297 881.197 906.481 884.787 923.307 903.197L930.375 910.93L937.79 910.85C947.676 910.745 950.736 909.015 963.711 896.201C976.118 883.947 975.703 885.141 970.335 877.155C948.864 845.215 908.509 826.902 872.298 832.664Z" fill="white"/>
</svg>
