<svg width="1254" height="1254" viewBox="0 0 1254 1254" fill="none" xmlns="http://www.w3.org/2000/svg">
<path fill-rule="evenodd" clip-rule="evenodd" d="M589.226 102.977C98.3907 145.903 -26.2333 802.499 414.652 1022.74C493.891 1062.32 604.545 1081.56 676.717 1068.31L680.532 1067.61L680.394 1050.57C680.294 1038.21 680.865 1030.62 682.47 1022.96C685.18 1010.02 686.855 1011.06 666.858 1013.22C630.956 1017.09 579.868 1015.2 546.089 1008.74C533.191 1006.27 505.246 999.541 503.557 998.497C502.259 997.694 562.65 818.674 606.684 692.797C627.923 632.079 629.957 626.382 630.072 627.252C630.177 628.048 638.668 651.971 664.441 724.101C674.854 753.237 691.141 799.019 700.637 825.838C733.571 918.855 736.281 926.376 737.185 927.302C737.686 927.815 754.687 911.46 774.964 890.959C822.257 843.147 836.965 832.815 869.366 824.652C874.035 823.476 874.539 822.937 876.449 817.086C877.579 813.623 885.258 792.638 893.513 770.455C901.768 748.271 916.903 706.824 927.145 678.349C937.389 649.875 951.634 610.324 958.803 590.458C992.942 495.842 998.29 471.137 997.167 413.205L996.667 387.442L1000.22 394.436C1042.17 477.059 1055.35 582.977 1035.5 678.095C1035.39 678.618 1042.89 679.229 1052.16 679.456C1062.01 679.694 1073.2 680.744 1079.08 681.982C1091.83 684.664 1090.86 686.482 1095.49 651.259C1135.25 349.126 884.143 77.184 589.226 102.977ZM666.281 160.663C752.379 170.265 841.734 210.039 902.622 265.863L905.991 268.951L894.796 270.359C825.603 279.061 811.067 349.641 862.407 427.643C910.046 500.025 917.561 542.532 896.182 618.665C885.658 656.144 832.991 826.627 831.363 828.485C830.957 828.947 824.283 810.526 816.531 787.549C808.78 764.572 792.067 715.161 779.391 677.747C747.831 584.582 733.335 540.895 721.068 501.964C715.328 483.754 704.483 450.434 696.966 427.919L683.298 386.983L687.131 386.189C689.239 385.753 699.632 384.782 710.227 384.035C742.683 381.743 752.68 374.504 746.335 357.886C741.847 346.139 736.73 344.817 704.733 347.138C632.787 352.359 595.147 352.372 524.286 347.203C491.653 344.822 483.274 348.269 483.274 364.076C483.274 377.87 490.557 382.025 518.19 383.991C545.424 385.93 542.855 384.464 548.875 401.483C551.676 409.4 559.68 431.591 566.662 450.795C611.628 574.47 607.683 555.139 595.803 593.593C585.466 627.053 577.097 653.218 548.278 742.161C531.375 794.327 516.986 840.004 516.986 841.493C516.986 847.721 505.82 815.462 457.805 670.523C445.191 632.447 418.884 553.142 399.344 494.29C374.157 418.428 364.23 387.033 365.234 386.412C366.012 385.931 376.501 384.856 388.541 384.024C419.276 381.899 426.164 378.206 426.023 363.933C425.85 346.374 420.032 344.618 372.617 347.825C351.697 349.239 319.194 350.723 300.388 351.121L266.195 351.846L268.482 347.934C325.515 250.406 456.864 172.415 585.614 159.631C598.589 158.341 651.549 159.019 666.281 160.663ZM236.225 423.705C237.629 427.347 244.791 446.852 252.143 467.049C259.494 487.246 269.504 514.606 274.387 527.85C295.689 585.627 338.627 703.782 368.894 787.912C385.987 835.424 394.616 859.189 418.297 923.964C422.171 934.559 427.745 949.566 430.686 957.315L436.033 971.402L425.614 966.17C244.295 875.106 154.695 651.186 219.15 450.193C223.009 438.16 232.24 415.403 232.932 416.215C233.34 416.693 234.821 420.063 236.225 423.705ZM1031.69 710.877C997.013 717.288 985.462 725.146 934.748 776.83C889.494 822.95 890.782 820.067 914.905 821.238C931.988 822.066 940.52 823.793 956.281 829.609L963.944 832.437L988.971 806.954C1021.65 773.681 1028.77 769.329 1050.63 769.276C1092.78 769.174 1116.63 812.238 1096.29 851.724C1090.92 862.13 1002.93 952.005 991.951 958.283C968.764 971.55 940.502 966.921 921.745 946.785L914.211 938.697L905.919 939.29C895.087 940.065 890.11 943.05 876.606 956.883L865.998 967.748L867.779 971.19C895.009 1023.85 974.36 1041 1028.09 1005.85C1044.15 995.335 1135.76 901.449 1144.51 886.527C1195.67 799.293 1127.51 693.167 1031.69 710.877ZM892.03 850.702C873.952 853.579 855.885 860.556 841.054 870.389C829.96 877.743 746.418 960.066 736.063 973.847C677.125 1052.29 723.46 1159.04 817.984 1162.59C862.172 1164.25 879.27 1154.87 935.202 1098.3C979.261 1053.73 978.246 1055.53 960.055 1054.45C944.45 1053.53 928.53 1050.58 918.224 1046.7C913.923 1045.09 909.537 1043.76 908.477 1043.76C907.417 1043.76 895.155 1055.1 881.23 1068.96C859.717 1090.38 854.744 1094.72 848.162 1097.82C796.838 1122.02 749.007 1069.49 776.775 1019.41C782.111 1009.79 866.807 923.489 876.476 917.822C900.748 903.598 929.286 907.511 947.624 927.576L955.327 936.004L963.409 935.917C974.184 935.802 977.519 933.917 991.66 919.951C1005.18 906.595 1004.73 907.896 998.88 899.193C975.478 864.382 931.495 844.422 892.03 850.702Z" fill="white"/>
</svg>
